HIERARCHY
ROOT Hips
{
    OFFSET 0.000000 0.000000 0.000000
    CHANNELS 6 Xposition Yposition Zposition Zrotation Xrotation Yrotation
    JOINT Spine
    {
        OFFSET -0.000000 7.858286 0.000000
        CHANNELS 3 Zrotation Xrotation Yrotation
        JOINT Spine1
        {
            OFFSET -0.000000 25.138355 0.000000
            CHANNELS 3 Zrotation Xrotation Yrotation
            JOINT Neck
            {
                OFFSET -0.000000 25.035116 2.275919
                CHANNELS 3 Zrotation Xrotation Yrotation
                JOINT Head
                {
                    OFFSET -0.000000 13.416585 -1.916655
                    CHANNELS 3 Zrotation Xrotation Yrotation
                    End Site
                    {
                        OFFSET -0.000000 23.958189 0.000000
                    }
                }
            }
            JOINT LeftShoulder
            {
                OFFSET 3.815342 24.034578 -0.234509
                CHANNELS 3 Zrotation Xrotation Yrotation
                JOINT LeftArm
                {
                    OFFSET 8.622727 0.000000 0.000000
                    CHANNELS 3 Zrotation Xrotation Yrotation
                    JOINT LeftForeArm
                    {
                        OFFSET 31.706440 0.000000 0.000000
                        CHANNELS 3 Zrotation Xrotation Yrotation
                        JOINT LeftHand
                        {
                            OFFSET 23.773136 0.000000 0.000000
                            CHANNELS 3 Zrotation Xrotation Yrotation
                            End Site
                            {
                                OFFSET 14.374913 0.000000 0.000000
                            }
                        }
                    }
                }
            }
            JOINT RightShoulder
            {
                OFFSET -3.836082 24.034578 -0.234509
                CHANNELS 3 Zrotation Xrotation Yrotation
                JOINT RightArm
                {
                    OFFSET -8.622727 0.000000 0.000000
                    CHANNELS 3 Zrotation Xrotation Yrotation
                    JOINT RightForeArm
                    {
                        OFFSET -31.706440 0.000000 0.000000
                        CHANNELS 3 Zrotation Xrotation Yrotation
                        JOINT RightHand
                        {
                            OFFSET -23.773136 0.000000 0.000000
                            CHANNELS 3 Zrotation Xrotation Yrotation
                            End Site
                            {
                                OFFSET -14.374913 0.000000 0.000000
                            }
                        }
                    }
                }
            }
        }
    }
    JOINT LeftUpLeg
    {
        OFFSET 9.583276 0.000000 0.000000
        CHANNELS 3 Zrotation Xrotation Yrotation
        JOINT LeftLeg
        {
            OFFSET -0.000000 -36.453522 0.000000
            CHANNELS 3 Zrotation Xrotation Yrotation
            JOINT LeftFoot
            {
                OFFSET -0.000000 -41.465855 0.000000
                CHANNELS 3 Zrotation Xrotation Yrotation
                JOINT LeftToeBase
                {
                    OFFSET -0.000000 -6.229129 14.374913
                    CHANNELS 3 Zrotation Xrotation Yrotation
                    End Site
                    {
                        OFFSET -0.000000 0.000000 3.833310
                    }
                }
            }
        }
    }
    JOINT RightUpLeg
    {
        OFFSET -9.583276 0.000000 0.000000
        CHANNELS 3 Zrotation Xrotation Yrotation
        JOINT RightLeg
        {
            OFFSET -0.000000 -36.453522 0.000000
            CHANNELS 3 Zrotation Xrotation Yrotation
            JOINT RightFoot
            {
                OFFSET -0.000000 -41.465855 0.000000
                CHANNELS 3 Zrotation Xrotation Yrotation
                JOINT RightToeBase
                {
                    OFFSET -0.000000 -6.229129 14.374913
                    CHANNELS 3 Zrotation Xrotation Yrotation
                    End Site
                    {
                        OFFSET -0.000000 0.000000 3.833310
                    }
                }
            }
        }
    }
}
MOTION
Frames:    9
Frame Time:    0.004000
-12.958637    119.555298    -94.318634    -0.912683    0.675797    6.584132    0.139123    5.292474    -1.153016    1.568989    5.797109    -1.226050    -1.632182    34.272614    -0.867959    0.094758    -18.331968    -1.168469    -14.282990    24.083710    2.124506    -22.910738    27.144577    -38.124317    -0.425571    -8.615769    -31.723240    7.101315    -9.131170    -6.440493    13.429409    31.557243    3.667500    15.041634    33.920147    34.467678    -16.468603    -21.142982    34.672108    -5.988130    -16.055735    -3.627135    6.152436    -30.213381    5.007802    -15.166582    69.661781    8.748997    6.383551    -19.168140    7.727147    0.000000    0.000000    0.000000    3.470194    -22.945591    -0.728923    4.141863    33.511162    -0.911162    -3.004223    -9.190239    -5.362849    0.000000    0.000000    0.000000    
-12.911304    119.678734    -94.178047    -0.808767    0.720399    6.573471    0.096081    5.148952    -1.114392    1.596248    5.807820    -1.191104    -1.713924    34.243599    -0.864650    0.072275    -18.304905    -1.185863    -14.406791    24.145161    2.244849    -22.869568    27.211313    -38.146343    -0.411853    -8.570337    -31.710318    7.041565    -9.078605    -6.440648    13.379209    31.521168    3.633035    14.796540    34.565891    34.611153    -16.888288    -21.477015    34.333431    -5.762288    -16.329576    -3.660456    6.043316    -30.252596    5.034295    -14.794090    68.927147    8.182200    5.802595    -19.082750    7.983544    0.000000    0.000000    0.000000    3.261935    -22.560043    -0.866905    4.180871    32.962975    -0.835871    -3.133957    -9.100304    -5.274118    0.000000    0.000000    0.000000    
-12.868474    119.789543    -94.044952    -0.717039    0.777566    6.566571    0.086591    5.022264    -1.077299    1.559759    5.773814    -1.152237    -1.734607    34.228958    -0.861624    0.045072    -18.266153    -1.194269    -14.465714    24.128584    2.342618    -22.957479    27.230869    -38.106632    -0.523511    -8.422977    -31.689329    7.001633    -8.955762    -6.363142    13.399930    31.571520    3.543837    14.832190    34.565155    34.612812    -16.811277    -21.398447    34.327084    -5.727178    -16.272932    -3.682328    5.933144    -30.314354    5.037875    -14.453340    68.166283    8.097671    5.945612    -18.953671    7.888175    0.000000    0.000000    0.000000    3.068904    -22.224939    -0.984274    4.235050    32.463280    -0.776980    -3.172533    -9.008546    -5.213064    0.000000    0.000000    0.000000    
-12.817327    119.905876    -93.904022    -0.615590    0.840903    6.568550    0.091933    4.872959    -1.047696    1.495632    5.756187    -1.119080    -1.742096    34.208702    -0.867587    -0.009858    -18.221098    -1.217774    -14.540695    24.154444    2.446140    -23.059345    27.180079    -38.016342    -0.619196    -8.269863    -31.738235    6.840101    -8.823668    -6.407008    13.435530    31.577671    3.500620    14.810805    34.738819    34.574284    -16.844103    -21.413357    34.298725    -5.650345    -16.281595    -3.756879    5.795228    -30.366337    5.025061    -14.048721    67.356316    7.732739    5.696447    -18.857731    7.962279    0.000000    0.000000    0.000000    2.850947    -21.877893    -1.132252    4.287362    31.937487    -0.843887    -3.244535    -8.898546    -4.996883    0.000000    0.000000    0.000000    
-12.769482    120.012924    -93.759941    -0.516065    0.883677    6.558918    0.054766    4.713953    -0.999093    1.515503    5.793333    -1.073556    -1.798270    34.204899    -0.874646    -0.021523    -18.240419    -1.238596    -14.612172    24.152523    2.524068    -23.126268    27.210489    -37.971397    -0.682992    -8.221273    -31.746397    6.757859    -8.791679    -6.459931    13.418955    31.556610    3.444784    14.899301    34.754910    34.508343    -16.759041    -21.332565    34.301743    -5.548861    -16.225565    -3.783646    5.679775    -30.384705    5.022842    -13.722291    66.556030    7.251276    5.715644    -18.694134    8.216298    0.000000    0.000000    0.000000    2.656536    -21.518913    -1.277729    4.320309    31.437925    -0.804080    -3.287696    -8.830723    -4.881331    0.000000    0.000000    0.000000    
-12.716288    120.112762    -93.620338    -0.410155    0.905327    6.545587    0.038639    4.612207    -0.956584    1.498882    5.768714    -1.030564    -1.869260    34.190125    -0.854983    -0.015556    -18.182520    -1.228734    -14.710073    24.142014    2.578177    -23.163090    27.322172    -37.874073    -0.686097    -8.191677    -31.761589    6.637081    -8.754914    -6.434672    13.431265    31.557051    3.398031    14.874744    34.914833    34.473042    -16.764389    -21.363735    34.264332    -5.424751    -16.264072    -3.822122    5.551507    -30.358004    5.002831    -13.414280    65.713432    6.906191    5.142548    -18.601952    8.289247    0.000000    0.000000    0.000000    2.450445    -21.161861    -1.442406    4.349919    30.986525    -0.641986    -3.405728    -8.781279    -4.865762    0.000000    0.000000    0.000000    
-12.676850    120.205643    -93.491745    -0.341328    0.992966    6.518075    0.042083    4.420524    -0.911153    1.469928    5.793617    -0.983967    -1.901660    34.165241    -0.856154    -0.037621    -18.162607    -1.241807    -14.775242    24.173235    2.680410    -23.236347    27.274406    -37.835041    -0.787545    -8.080046    -31.799959    6.609762    -8.667460    -6.377424    13.440765    31.511864    3.361033    14.976399    34.936188    34.400501    -16.688284    -21.308275    34.195736    -4.971522    -16.262280    -3.651374    5.474450    -30.411581    5.025490    -13.114666    64.901054    6.487049    5.046865    -18.536367    8.393978    0.000000    0.000000    0.000000    2.295404    -20.882736    -1.527919    4.409457    30.524200    -0.558760    -3.537000    -8.699674    -4.786297    0.000000    0.000000    0.000000    
-12.627681    120.299042    -93.347122    -0.248327    1.043658    6.495012    0.034258    4.277208    -0.867779    1.436173    5.786407    -0.939098    -1.881527    34.095558    -0.881090    -0.131444    -17.998001    -1.290302    -14.827171    24.199224    2.793081    -23.319641    27.274643    -37.804146    -0.867858    -8.024808    -31.818180    6.339543    -8.630932    -6.573781    13.463719    31.509581    3.306452    15.308697    34.446262    34.180180    -16.162594    -20.855253    34.436184    -4.944326    -15.922114    -3.588838    5.365729    -30.400644    5.004626    -12.786140    63.992775    6.116846    4.820690    -18.458113    8.356236    0.000000    0.000000    0.000000    2.113214    -20.550648    -1.630716    4.464776    30.059444    -0.454469    -3.657739    -8.635919    -4.842823    0.000000    0.000000    0.000000    
-12.578979    120.381882    -93.178383    -0.152092    0.974524    6.470574    0.032001    4.225959    -0.825137    1.411192    5.803737    -0.895588    -1.918321    34.084553    -0.863557    -0.143673    -17.957392    -1.281992    -14.926838    24.190001    2.881338    -23.328028    27.377012    -37.754322    -0.897455    -8.023161    -31.803860    6.249527    -8.627587    -6.484938    13.483427    31.512400    3.274054    15.172645    34.773811    34.175941    -16.251270    -20.989309    34.327171    -4.865768    -16.052967    -3.561961    5.259822    -30.238981    5.053868    -12.456617    63.159081    5.793558    4.807404    -18.253578    8.409320    0.000000    0.000000    0.000000    1.946404    -20.073200    -1.765939    4.497399    29.587418    -0.298688    -3.809983    -8.619521    -4.852359    0.000000    0.000000    0.000000    
